<?xml version="1.0" encoding="utf-8"?>
<!-- Generator: Adobe Illustrator 25.0.1, SVG Export Plug-In . SVG Version: 6.00 Build 0)  -->
<svg version="1.1" id="Layer_1" xmlns="http://www.w3.org/2000/svg" xmlns:xlink="http://www.w3.org/1999/xlink" x="0px" y="0px"
	 viewBox="0 0 4535.4 2551.2" style="enable-background:new 0 0 4535.4 2551.2;" xml:space="preserve">
<style type="text/css">
	.st0{fill:#D5D0C6;}
	.st1{fill:#41593E;}
	.st2{fill:#5B7F53;}
</style>
<rect y="0" class="st0" width="4535.4" height="2551.2"/>
<path class="st1" d="M-120.5,2442.5c9,0.9,18.1,2.3,27.2,1.8c10-0.6,16.7-1.7,25.9-5c0.1-6.9-4.7-13.4,1.4-17.2
	c3.6-2.3,23.1-0.9,25,2.3c5.1,8.4-6.2,13.8,5,18.5c9.2,3.9,29.5-7.3,14.5-12.1c4.7-3.7,11.1-13,17.2-14.7c0.3,20.6-1,7.6,16.4,14.4
	c-15.2,8.8,0.2,13.9,9.6,13.9c19.7,0.1,39.2,0.2,59,0.4c9.8,0.1,14.1-2.1,22.6-4.2c11.7-2.9,24.5-0.4,36.2,1.6
	c3.9,0.7,10.5,3.5,14.8,1.9c4.9-1.9,6-9.4,11.5-10.6c2.6-0.6,4.8,2.2,7.4,2.7c12.6,2.6,14.9,5.4,25.4-1.4c7.7-4.9,34.8-29.1,44.3-16
	c6.1,8.4-8.3,13.4,5.9,18.8c6.7,2.6,17.1,0.4,23.9-1.1c7.3,10.8,8,10.9,20.6,3.3c5.5-3.3,8.6-6.9,14.6-6.6c5.2,0.2,10,6.2,17,5.9
	c0.1,1.3,0.2,2.8,0.2,4c-0.1,2.5,30.7,3.9,34.5,3.1c14.4-3.2,24.4-5.8,39.4-4.3c15.8,1.6,53.4,0.2,53.9-18.8
	c0.4-15.1-12.8-17.6-11.3-32.4c11,5.6,23.3,12.2,16.7,27.1c2.1,1.8,7.2,4.3,10.5,4.6c0.7-8.1,8.5-13.5,11.6-19.9
	c4.2-8.7,3.3-20,6.9-28.1c1.7-0.1,7.6,1,9.2,1.6c1.9,19.5-14,34.6-22.6,48.9c-15.2,25.3,12.2,16.2,28.6,16.8
	c29,1.1,60.6-5.4,88.8-2.4c7.1,0.7,14.8,4.2,21.8,3.2c4.5-0.7,10.3-7.8,16.2-8.9c15.3-2.8,26.7,8.5,41.7,9
	c11.5,0.3,20.8-4.5,32.1-2.9c9.2,1.3,10.5,4.8,18.7,1.3c19.7-8.2,43.5-2.9,65.4-3.1c27.5-0.2,54.3,8.1,81.7,8.9
	c6.8,0.2,20.2-2,27.5-2.4c9.5-0.5,19.6-2,29.2-2c19.6,0,39.6-0.5,58.6,0.6c-3.2-21.4,18.8-25.6,35.8-27.8
	c-2.1,5.6-1.9,13.2-4.5,18.6c23.6-0.7,41.6,1.3,65,6.6c16.4,3.7,28.2,4.1,45.6,2.4c23.6-2.3,43.7,2.8,67.4,4.3
	c32.9,2,69.4-5.6,102.8-8.3c15-1.2,67.8,11,68.6-14.9c13.3,4.8,27.5-6.5,41.2-7c-1.3,3-0.5,9.3-1.6,12.3c24.7,7.3,52.6,9,79.5,9
	c27.2,0,72.4,18.4,72.7-21.4c0.5,2.9,3.7,8.1,4.3,12.6c14.7-10.4,23-31.9,33.9-45.2c-1.6,14.8-11.6,30-18.4,43.7
	c12.3-6.6,26.8-11.8,40.4-13.1c-4.1,8.7-16.4,19.2-13.1,29.9c14.8-6.4,30.6-2.1,45.7-3.7c16.6-1.7,27.9-8.7,44.1-7.6
	c14.5,0.9,27.3,4.7,41.7,5.1c14.5,0.4,28.7-1,42.5-1.3c38.1-1,76.3,8.7,114.8,7.9c13-0.3,20.5-6.3,28.6-11.5
	c6.8-4.3,4.8-21.4,19.6-6.8c5.2-12,16.8-20.4,30.1-18.4c-2.1,4.3-0.5,8.3-1.7,12.3c19.6-0.1,26.8,1.7,44.2,8.2
	c17.5,6.5,35.8,4,57.6,5.1c18.7,0.9,35,2.4,53-1c13.9-2.6,18.4-4.1,31.7-1.1c8.2,1.8,13.1,7.8,21.6,8.8c20.9,2.4,44.8-8.2,65.1-10.8
	c13-1.7,26.1,2.6,34.3-10.5c14.1,10.7,27,3.2,39.8-4.5c8.9,31.3,32,9.1,50,3.9c18.2-5.2,4.1-5.8,16.7-0.3
	c20.3,8.7,27.3,34.3,55.1,26.3c16.9-4.9,25.1-15.8,45.3-16.9c23.2-1.2,46,7.6,68.9,5.9c45.8-3.4,88.6-6.1,135.2-0.7
	c42.1,4.9,82.8-9.7,124.4-3.6c42,6.1,84.7,21.2,124.6,9.4c10-3,21.6-11.7,31.1-13.2c18.7-3,36.9,17.7,56.6,12.4
	c16.7-4.5,18.7-13,21-31.5c2.8,3.5,8.9,5.3,11.6,8.2c8.5-15.9,17.3-18.9,35.6-25.3c32.7-11.5,49.9,1.2,85.6,1.5
	c3.6,7,9.1,13.3,11.5,21.1c23.3-3,50.7-8.4,74.5-4.1c17.2,3,29.4,12.4,46.7,17.1c23.9,6.4,108.9-0.9,116.6,19.5
	c31.6-21.4,56.5-22.6,92.3-14.8c28.9,6.3,51.7-5.9,80.8-4.4c25.2,1.3,52.4,12,77.5,8.4c29.5-4.2,60.7-8.9,91.6-12.7
	c26.8-3.4,54.5-0.9,81.6,0.1c24.9,0.9,48.3,9.4,74.1,1.5c10-3.1,20.8-10,30.7-14.6c9-4.2,7.2-8.3,17.8-8.8c10-0.5,18.4,8.2,29.6,6.3
	c5.3-11.7,60.2-48.1,73.9-32.7c-6.7,5.9-14.4,13.5-19.1,21.8c8.4-1,12.6,2.4,19.2,7c-1.6,6.6-2.2,14.2-1.9,21.4
	c16.7-5.1,29.8,7,43.3,4.7c12.4-2.1,13.3-13,23.6-14.7c17.7-3,45.2,12.3,65.2,12.5c34.8,0.4,66.3-3.8,100.2,0.1
	c26.9,3.1,32.5-13.7,53.7-17.7c15-2.9,35.9,7.9,50.5,10.6c12,2.2,25.9-0.2,37.4,2.6c20.7,5.1,32.4,21.8,51.3,22.2
	c23.3,0.5,50,0,73.8-0.2c0.7,10.1-0.2,19.9-1.2,30c-3.9,42-3.7,92.2-15.5,132.4c-12.4,42.5-51.1,29.3-86.3,24.4
	c-77.3-10.8-156.5-8-234.2-4.5c-272.4,12.4-543.8,48.1-816.9,45.9c-215.5-1.7-433.1-20.1-648.4-31.9c-59.1-3.2-126.4-6.1-180-35.7
	c-21.2-11.7-41.4-27.4-65.6-33.6c-30.3-7.7-72.9,8.7-104.2,8.8c-48.9,0.2-97.9-2.3-146.8-0.2c-131.6,5.4-263.4,2.8-395.1-0.1
	c-130.1-2.8-260,11.6-390,3.6c-99.6-6.2-197.9-14.3-297.7-15.3c-64.5-0.6-122.1-1.4-184.2,10.2c-93.4,17.6-188.1,19.3-283.9,29.1
	c-140.1,14.3-282.6,29.5-423.4,21C7.4,2609-287.4,2612.9-580.4,2582c-76.7-8.1-144.7,2.6-219.8,11.5c-25.1,3-96.9,5.6-119.6-14.3
	c-18.7-16.4-17.7-59-24.7-84.4c-4-14.5-10.2-32.9-6.7-48.1c2.7-11.6,22-19.2,32.9-23.7c6-2.5,11.4-8.1,18-9.7
	c6.2-1.5,18.1,2.1,20.9,7.9c2.5-0.2,6.3-0.2,8.2-1.6c3.2-2.4,1.2-10.6,9.8-10.1c0.4,3.1-0.6,5.7-3,7.8c-0.6-0.2,1.7,1.7,1.4,1.2
	c2.4-1.9,5.3-2.2,7.9-0.7c-1,2.3-0.1,2.8-0.4,4.6c8.6-6.7,12.2-2.8,20.7,1c10.3,4.6,22.8-0.2,34.4,0.3c8,0.3,15.6-2.1,23.5-1.1
	c10.8,1.3,21.9,6,32,9.7c16,5.8,36.5-0.9,53.6-1.3c27.8-0.7,55.4,4.2,83.1,3c10.3-0.5,20.1-4.4,30.5-3.8c9.9,0.6,19.2,4.2,29.2,4.3
	c15.9,0.1,27.3-8.2,43.1-1.4c12.8,5.5,20.8,7,34.1,6.3c11-0.5,21.6,1,32.5,0.6c4.1-0.2,13.6-0.2,17.4-1.8c4.6-1.9,6-7.2,11.7-7.7
	c3.3,14.9,15.3,4.9,26.7,4.2c14.2-0.8,21.6,10.1,35.3,5.6c5.3-1.7,13.5-6.5,18.8-6.8c8.1-0.4,15.1,7.3,22.7,9
	c4.3,0.9,10.5,1.2,14.7,1.3c6.1,0.2,9.6-2.7,15.5-2.8c0.1-1-0.3-2.2-0.6-3.2c0.9-0.5,2.2-1.2,3.1-1.8c-0.1-0.1-1.4-1.6-1.4-1.7
	c0.2-0.4,1-1.5,0.9-2.1c1.9-0.5,5.2-0.5,7.1,0c-0.5,1.7,0.2,3.1-0.6,4.8c5,1,10.2,3.5,15.3,4.9c2.1-2.3,4.3-5,5.9-7.8
	c0.3,8,17.7,7.4,23.4,7.9c2.6-3.9,9-10.9,9.1-15.7c0.2-7.3-9.3-12.9-11.9-19.9c5.2,2.2,7.6,10.6,13.1,9.3c3.5-0.8,12.1-15.6,13.8-19
	c1.8,4.2-6.4,17.6-8.8,22.3c3,2.1,6.2,4,8.6,6.2c-5.9-3.2-6.6-1-9.7,2.6c-4.7,5.4-4,7.4-1.4,11.2c6.3,9.1,26.5,4.8,36,4.6
	c12.7-0.3,25-0.8,37.5-1.6C-131.4,2441.6-126,2442-120.5,2442.5z"/>
<g id="Tree_6_">
	<path class="st2" d="M860.6,1492.2c0,0,24,7.2,1.5-5.4c0,0,13.3,3.7-0.7-11.5c0,0-7.6-3.3-16.7-4.6c0,0,4.8-5.6-4.9-9.1
		c0,0,14.6,2.4,12.7-8.7s-15.3-9.2-15.3-9.2s-1.2-20.2-25.4-17.3c0,0,25.3-21.7,3.2-27c0,0-3.1-22-24.9-19.4c0,0,3.6-5.2-21.3-9.7
		c0,0,12-2.2,5.2-14.5c0,0,14-17-10.7-19.6c0,0,12.1-8.6,2.5-13.2c0,0,10.9,0.3,2-15.9c0,0-7.9-11.4-15-8.7c1.7-0.8,5.9-3.3-6.2-4.6
		c0,0-4.1,0.9-7.4,3.2c-0.3-2.9-3.2-5.2-12.7-3.9c-21.6,2.9-20.6,20.5-20.6,20.5s-17.3,1.9-17.5,16.5c0,0-1.3,5.2,3.2,12.2
		c0,0-2.5-3.2-5.7,1c0,0,1.5-12.1-20.1-3c0,0,9.6-11.8-1.2-18.5c0,0,10.6,2.7,13.3-18.3c0,0-0.1-14.7-9.6-12.5c0,0-1-16.7-17.3-9.9
		c0,0-3.5,0.4-3.5,4.1c0,0-0.1-12.2-13.8-10.3s-23,20.2-23,20.2s-2.4-12.1-11.7-10.7c0,0,7-6.2-1.1-8.6c0,0,6.3,0.6,4.2-4.7
		c-2.1-5.2-6.1-1.1-6.1-1.1s-22.6-17.1-40.2,9c0,0-18.9,0-13.4,12.1c0,0-2.7-2.7-5.7,0.2c0,0,0.8-5.3-3.9-5.6c0,0,1-8.1-13.6,1
		c-14.6,9.1-9.4,16.1-9.4,16.1s-3.4-1.5-6.1,1.2c0,0-2.1-11-21.6-0.8c0,0-18-10.5-18,9.8c0,0-23.5-6.7-9.6,15.6c0,0-4.6-2.2-5.3,1.5
		c-0.8,3.7,3.5,6.6,4.2,7.2c0,0-30.8-17.8-32.8,15.8c0,0-5.5-0.6-4,5.7c0,0,0,0,0,0c-4.6,1.9-9.7,5.9-4.5,14.2
		c3.5,5.6,9.6,8.4,15.6,9.9c-4.5,3.5-6.1,9.1,8.3,17.4c-2.5,4-3.5,9.5,1.5,16.1c9.2,12.3,9.4,15.3,14.2,12.3c2.3,3.6,6,6.7,11,4.8
		c1.2,4.8,4.9,11,16,12.8c15.8,2.6,18.8-11.9,19.4-16.8c1.4,0.1,2.9-0.1,4.5-0.7c2.3,2.3,5.6,3.8,9.8,0.6c1.6,3,5,6.3,12.2,6.3
		c6.6,0,9.6-3.2,10.9-6.4c0.8-0.3,1.8-0.8,2.9-1.6c2.3,1.9,5.5,3,9.8,1.7c1.5,3,5.3,5.7,14.5,4.2c3,3.7,7.6,7.7,11.7,4.8
		c6.4-4.6,9.6-6.6,2.9-13.5c0.5-0.9,1-2.1,1.1-3.5c1.3-0.4,2.6-1.8,2.1-5.3c2.7,1.2,5.7,0.9,7.1-4.2c0.5-1.9,0.9-3.6,1.1-5.1
		c3,0.2,6.8-0.8,10.3-4.8c3,5.5,8.4,12.2,16.2,11.6c0,0.9,0.1,1.8,0.5,2.7c-2.5,1.6-5,4.3,0.2,6.7c1.9,0.9,3.1,0.7,4.5,0.5l1.2-5.6
		c4.4,4.6,5.6-0.2,5.6-0.2s1.3,0,2.8-1.4c2,2.7,5.7,5.4,12.7,6.8c1.1,2.8,3.2,5.6,7.4,7.4c-1.3,2.2-1.2,5.5,5.9,9.2
		c2,1,6.2,3.7,8.1-1.3c4,2.1,11.1,4,15.2-5.5c0,0,3.3,0.1,4.6-3.2c4.4,1,12.8,1.4,19.5-8.6c2.3,1.7,6.4,3,13.5,2.1
		c0.2,4.1,2.6,8.7,11.2,10.4c1.1,2.4,4,4.8,10.4,6.4c-0.3,5.8,2.9,15.2,21.8,23.9c-0.7,1.8-0.9,4,0.7,6.3c-1.8,3.2-3.4,8.1,1.8,11.7
		c-1,2.6-1.3,6.4,2,11c-5.5-0.7-12.4-0.7-10.4,4.3 M587.3,1358.2c-2.8-3.9-7.2-7.6-13.3-6.9c-2.8-2.7-6.9-4.8-12.6-4.3
		c4.3-3.1,9-8.5-0.8-13.3c2.2-0.4,5.5-1.2,5.9-2.4c0.3-1.2-1.8-2.2-3.5-2.9c2.9-1.6,6.9-4.1,8.8-7.1c1.2,5.2,4.1,10.4,11.2,10.2
		c-0.5,1.6-0.6,3.4,0.3,5.2c-1.8,0.9-2.6,2.6,0.1,5.9c4.7,5.5,7,8.2,11.2,9.1C591.3,1353,588.5,1355,587.3,1358.2z M754.1,1374.1
		c-1.9-1.4-5.3-1.5-11.3,3.6c-2.3-0.4-5-0.2-8.1,1.1c-2.3-4.6-6-8.8-12.2-9.9c-3.4-2.6-9-4.8-17.7-3c-0.6-1.1-1.3-2.1-2.2-3.1
		l-0.7-1c6.5,2.3,10.4,2.3,16.5-8.2c0,0,0,0,0-0.1c0.8,0,1.7-0.2,2.7-0.5c0.9,1.9,3,2.7,7.4,1.1c2.9,3.1,8.2,6.6,17.7,8.5
		c1.4,2.7,4.9,5.8,12.5,8.9c-0.2,0.5-0.3,1.2-0.4,2C757.1,1373.4,755.7,1373.6,754.1,1374.1z"/>
	<path class="st2" d="M776.8,1425.9c-2,0.6-3.6,1.3-4.9,2.2c-2.8-3.4-6.6-6.8-10.5-7c-7.1-0.3-8.2,3.3-8.2,3.3s-12.5-4.8-20.3-3.7
		c-7.7,1.1-20.8-1.1-23.8,21.3c-6.6-2.6-14.4-4.3-19.1-0.3c-5.5-1-11.5,0.5-14.3,9.7c-5,3-10.4,8.3-0.3,13.5l0.9,0.3
		c-1.3,4-1.6,8.9,3.9,11c0,0,11.9,9.8,23.5-3.8c0,0,19.8,17.9,33.9,8.1c0,0,3.3,9.6,16.5,5.8c11.2-3.2,14-10.7,14.6-12.8
		c7.8,0.5,17.2-0.8,16-11.1c-1.5-13.3-13.2-10.9-18.4-9.2c-0.4-0.6-0.8-1.2-1.2-1.8c4.2-0.7,11.6-3.3,23.6-11.5
		C810.6,1425.1,787.8,1422.6,776.8,1425.9z"/>
	<path class="st2" d="M753.2,1344.1l-62.6-29.7l-45.6-13.3l-37.9,25.3l-24.5,27.5c0.2,12.8-6.6,24.9,21.5,28.6
		c5.3,0.7,9,0.9,11.4,0.8c2.7,6.3,10.9,13.2,35.6,1.6c0.3-0.2,0.6-0.3,1-0.5c2.6,3.7,7.7,8.5,16.1,6.4c3.8,3.8,10.8,7.9,22.6,7.5
		l16-2.3l1.6,1.6c0,0,9.3,16.4,19.3,2.4c0,0,17.2,9.4,21.8-5.1l21.4-0.3L753.2,1344.1z"/>
	<path class="st2" d="M611,1506.1c5.8-4.3,15.9-10.6,31.4-12.1s16-1.5,22.2-0.5c6.2,1,26.5,2.3,35.8,5.7s35.6-11.1,42.7-22.4
		l4.1,4.8c0,0-4.1,13.7-23.7,23.5c0,0,20.2,13.4,50.5,5.8l3.3,4.2c0,0-18.6,4.8-27.2,4.9c-8.5,0.1-33.5-6-33.5-6s-25.2-4.8-34-5.7
		s-34.5-2.5-41.6,1.1c-7.2,3.6-4.8-2.3-27,15.3L611,1506.1z"/>
	<path class="st2" d="M535.8,1344.9c2.1,20.8,6.4,40.2,16.7,52.9c10.3,12.7,39.2,35.3,38.5,92.2l2.5,6.1l22.3-31.2
		c0,0-1.4-25.6-8.8-38.1s-2.4-21.1-1.9-22.1c0.5-1.1,13.1-20.2,17-24.5s16.9-17.8,19.2-24.5c2.3-6.7,6.2-34,5.1-37.7l-6.2-0.5
		l-6.3,7.3l-1.5,7.2l0.6,4.3c0,0,0.4,13.9-2.4,19.8s-10,7.9-10,7.9s-6.2-8.5-7.9-12.7l-9.8,8.4c0,0,1.6,2.1,3,4s6.7,4.7,2.3,11.4
		c-4.5,6.7-12.6,17.5-12.6,17.5s-3.1,5.4-4.5,6.5s-4,0.6-5.6-0.2c-1.6-0.8-7.3-5-9.4-7.4s-8.2-11.7-7.4-17.3
		c0.7-5.6,2.2-16.1,5.9-20.6l-11-7.9l0.3,6.9c0,0-5.2,13.7-5.7,15.8c-0.5,2.1-1.8,3.5-3.2,3s-2.4-2.4-3-3.7s-5.5-15.2-4.8-21.8
		C548.1,1339.2,535.8,1344.9,535.8,1344.9z"/>
	<path class="st2" d="M639.6,1321.2c0.6,4.2,0.6,8.2,1,12.4c0.2,1.9-0.7,2.9-1.3,4.7c-0.3,0.7-0.5,1.9-0.3,2.7
		c0.2,0.7,0.9,0.9,0.7,1.7c-0.2,0.8-4.4,3.9-1.2,3.9c-0.1,1-1.4,2.2-2,3.1c-1.1,1.6-1.7,3.6-2.3,5.4c-0.7,2.1-0.7,4.3-1.8,6.3
		c-1.3,2.5-3.4,4.6-5.8,6.1c-2.2,1.4-4.9,1.7-7.3,2.7c0.4,0.2,1.5,0.4,1.5,0.9c0,0.5-1.9,1.7-2.2,2c-2.9,2.3-6,4.4-7.9,7.7
		c-1.7,2.9-1.9,6.5-3.8,9.4c-1.8,2.8-5,3.9-6.7,6.7c-1.6,2.9-3.6,5.4-7.1,5.6c-3.3,0.2-6.2-1.9-8.3-4.2c-2.2-1.4-6.7-4.8-8.6-6.9
		c-2.2-2.4-8.2-11.7-7.4-17.3c0.7-5.6,2.2-16.1,5.9-20.6l-5.8-4.1c-0.2,3.5-1,6.9-1.9,10.1c-0.6,2.2-1.1,4.3-1.8,6.5
		c-0.7,2.3-1.6,4.9-3.8,6.2c-2.3,1.3-4.3,0.7-5.8-0.7c-0.2,0-0.4,0-0.6-0.1c-1.3-0.5-2.4-2.4-3-3.7s-5.5-15.2-4.8-21.8
		c0.3-3.2-2.3-3.5-5.2-3c-0.7,0.1,0.4,11.1,0.6,12.2c0.6,4,2.3,8,4,11.7c1.3,2.8,2.7,5.3,4.5,7.8c1.2,1.7,3.2,3.5,4,5.3
		c1.7,3.8-2.3,6.3,2,9.5c5.6,4.3,11.5,8.1,16.8,12.9c4.3,3.9,12.2,8.9,9.9,15.4c-0.8,2.2-2.2,4.7-0.2,6.9c1.4,1.6,3.9,0.8,5.1,3
		c1.2,2.3-0.6,5.6-0.1,8.2c0.7,3.8,2.4,0.8,5.1,1.8c3.8,1.3,3.6,8.2,4.2,11.5c1.2,6.6,1.7,13.3,1.8,20c0,3.6,0.3,7.2,0,10.8
		c-0.1,1.6,0.8,6.8-0.1,8l16.3-22.8c0,0-1.4-25.6-8.8-38.1s-2.4-21.1-1.9-22.1s13.1-20.2,17-24.5c4-4.3,17-17.8,19.2-24.5
		c1.7-5,4.7-22.6,5.3-33.4C645.8,1323.8,639.8,1321,639.6,1321.2z"/>
	<path class="st2" d="M774,1510.7c-8.8,2.2-18,2.9-27,1.8c-6-0.7-12-2.2-17.6-4.6c-3.2-1.3-6-3-8.8-4.9c-0.9-0.6-1.9-1.3-2.9-1.6
		c0.5-0.1,0.9,0.2,1.3,0.3c0.5,0.2,0.8,0.1,1.3,0.2c0.5,0.1,1,0.7,1.5,0.5c0.2-0.1,0.2-0.3,0.4-0.5c0.3-0.2,0.6-0.1,1-0.2
		c0.8-0.1,1.2-0.3,2-0.4c0.8,0,1.5,0.1,1.2-0.8c-0.1-0.3-0.5-0.7-0.4-1c0.2-0.4,0.4-0.2,0.7-0.3c0.8-0.3,1.3-0.9,2-1.3
		c0.3-0.2,0.6-0.3,0.9-0.5c0.2-0.2,0.3-0.5,0.6-0.7c0.5-0.3,1.1-0.3,1.6-0.6c1.2-0.9,0.6-2.1-0.1-3c0.4,0.5,1,1.3,1.8,1.1
		c0.3-0.1,0.6-0.6,0.9-0.8c0.6-0.3,1.2-0.4,1.8-0.7c1.5-0.7,1-1.9,1.4-3.2c0.3-0.9,0.7,0.6,1.5,0.4c0.5-0.2,0.4-0.8,0.7-1.1
		c0.2-0.2,0.4-0.2,0.6-0.3c0.5-0.4,0.6-0.8,1.2-1.2c0.8-0.4,1.2-0.9,1.8-1.6c0.4-0.5,0.9-0.9,1.3-1.4c0.7-0.8,1.4-1.6,2.1-2.4
		c0-0.1,0.1-0.1,0.1-0.1c0.2-0.4,0.2-0.7,0.2-0.7l-4.1-4.8c-7.1,11.3-33.3,25.8-42.7,22.4s-29.7-4.7-35.8-5.7c-6.2-1-6.7-1-22.2,0.5
		c-15.5,1.5-25.5,7.8-31.4,12.1l1.6,9.9c2.8-1.8,5.7-3.3,8.7-4.7c1.2-0.6,2-1.4,3.1-2.1c1.4-0.8,1.5,0.1,2.9,0.6
		c2.4,0.8,1-2.1,1.2-3.6c1.1-0.5,2.1,1.2,2.8,1.9c1.4-1-0.1-3.1,0.6-4.5c1.6,0.9,1.9,5.4,4.9,3.4c2.7-1.8-1.1-4.3-0.3-6.1
		c1.2,3.3,5.5,3.4,8.4,3.2s5.6-1.4,8.4-1.8c3.5-0.5,7.4-0.4,10.9-0.3c1.8,0.1,4,0,5.2-1.4c0.3,2.6,4.2,2.7,6.1,2.9
		c3,0.4,6,0.7,9,1.3c1.3,0.3,2.5,0.2,3.7,0.3c1,0.1,1.6,0.8,2.4,1c1.1,0.3,2.5,0.1,3-0.9c0.3,1.2,1.6,2.2,2.8,2.5
		c1.9,0.5,1.9-0.7,2.7-1.8c-1.3,2.2,4.6,2.7,5.8,2.7c2.1-0.1,3.3,0.1,5.3,0.7c1.5,0.4,3.4,0.3,4.7,1c0.7,0.4,2,2.1,3,1
		c0.7-0.9-0.4-2.8,0.7-3.8c0.1,1.4,0.2,3.4,1.5,4.3c1.6,1.1,1.7-0.7,2.2-1.8c0.7,0.7,0.8,1.4,1.9,1.9c0.9,0.4,2.1,0.6,3.1,0.9
		c1.8,0.5,3.7,0.4,5.5,0.8c1.7,0.3,2.9,0.2,4.3,1.3c0.8,0.7,1.8,1.6,3,1.5c1-0.1,1.6-1.1,2.7-1.1c2.4,0,3.2,2.2,5.8,1.2
		c2.1-0.8,3.7-0.2,5.8-0.1c3,0.1,6.2-0.1,9.3-0.2c1.5-0.1,2.7-0.5,4.1-0.7c2.9-0.5,5.6-1,8.4-1.9L774,1510.7z"/>
	<path class="st2" d="M650.7,2348.4c-1-6.8-2-13.6-3-20.4c-2.2-14.4-0.2-29.1,0.2-43.6c0.3-13-1.8-25.7-2.2-38.6
		c-1.1-35.8-1.3-71.7-3.9-107.4c-1.8-25.3-2-50.8-2.8-76.1c-1-29.4-10.7-67.5,5.1-93.7c6.8-11.3,12.7-14,9.2-27.9
		c-6.7,2.5-11.3,22.8-18,22.7c-9.1-0.2-6.3-92.2-6.7-99.9c-1.4-34.7-3.6-128.1-5-162.8c-1.7-42.1-3.5-84.3-5.2-126.4
		c0,0-0.5-66.5-0.8-71s1.2-6.7,1.2-6.7c4.9-13.4,45.3-48.1,55.6-57.6s28.7-30.5,34-37c5.3-6.5,16-19.4,21.6-26.7
		c5.5-7.3,14.2-21,14.2-21l-5.5-12.5c-5.2,10.8-35.7,49-35.7,49c13-26.6,7.4-49.2,7.4-49.2l-10-8.2c-0.3,15.5,1.6,24.3-6.1,46
		c-7.7,21.7-40.8,51.2-40.8,51.2c-6,6.1-34.4,28.5-34.4,28.5c-13.4,6-21.6,20.3-25.9,30.1c-2.2-2.7-4.8-5.2-8-7.2
		c-18.3-12.1-31.4-16.2-37.3-18.5c-5.9-2.3-29.5-14.1-34.4-19.6c-4.9-5.6-12.5-18.5-14.2-26c-1.7-7.5-4.5-20.8-4.5-20.8l-2.6-16
		l-2-14.7l-9.9,2.5l5.4,29.8c0,0,2,30.2,8.8,40.2c0,0-35.3-22.3-41.6-39s-17.6-5.3-17.6-5.3c13.1,20.5,29,40.2,44.8,50
		c15.8,9.8,18.7,14,43,24.4c24.3,10.4,65.9,29.8,66.5,76.1c0.6,46.3,2.2,349.2,2.2,349.2c0.1,24.1,2.1,48.5,1.3,72.6
		c-0.7,20.8,0.9,135.4,0.6,156.3c-1.1,74.2,2.6,149.6-3.4,223.6c-1.8,21.7,1.1,39.8-6.7,61.1c-6.2,17-14,25.5-28,36.4
		c-3.8,3-16,11.2-13.6,17.5c4.9,12.4,34.7,2.4,43.3,1.5c14.2-1.5,27.8,2.4,41.8,1.9c11-0.4,22.2-1.6,33.3-2.1
		c11.4-0.5,31.4-8.3,17.8-20.3c-8.6-7.6-16.5-10.9-18-23.4C657.4,2395.6,654.1,2371.9,650.7,2348.4z"/>
	<path class="st2" d="M587.9,1530.8c3.5-8.2,4.3-17,2.1-25.5c-2.8-4-2.2-8.4-4.8-12.3c-2.3-3.5-6.5-4.6-10.2-5.9
		c-4.8-1.7-8.2-4.6-12.2-7.5c-3.4-2.5-7.5-4.2-11.3-5.5c-4.2-1.5-8.4-2-11.9-4.8c-3.3-2.6-5.9-6.3-9.6-8.4
		c-7.6-4.3-16.6-4.3-23.2-10.8c-2.1-2.1-3.6-4.5-3.9-7.6c-0.2-2,0.2-4.1-0.3-6c-1.3-4.2-5.9-6.8-7.2-11.2c-0.9-3-0.1-6.1-1.3-9
		c-4.1-9.8-4.1-20.2-6.1-30.6c-1.1-5.9-2.2-11.7-3-17.7l-4.7,1.2l5.4,29.8c0,0,2,30.2,8.8,40.2c0,0-2.3-1.4-5.7-3.8
		c-3.7-2.5-8.6-4.3-12.7-5.8c-3.9-1.5-6.9-3.8-9.6-6.9c-1-1.1-1.9-2.4-3.4-2.9c0.7,2.7-1.6,1.3-2.3,0.1c-1-1.6-2-3.3-3.4-4.8
		c-6.7-7.2-13.1-14.3-18.5-22.7c0,0,0,0,0-0.1c-2.1,1.1-3.5,2.5-3.5,2.5c13.1,20.5,29,40.2,44.8,50c15.8,9.8,18.7,14,43,24.4
		C544.8,1478.5,579.9,1494.8,587.9,1530.8z"/>
	<path class="st2" d="M731.6,1615.7c-0.5,0-1-0.1-1.6-0.3c-4.3-1.4-8.2-8.5-11.7-20.9c-6.5-23.4-8.4-75.4-9.1-92.5
		c-0.1-1.7-0.1-3.1-0.2-4.1c0-0.4,0.3-0.8,0.8-0.8c0.4,0,0.8,0.3,0.8,0.8c0,1,0.1,2.4,0.2,4.1c0.6,17,2.6,68.8,9,92.1
		c4.3,15.5,8.5,19.1,10.6,19.8c1.4,0.5,2.2-0.1,2.3-0.1l0.2-0.1l0.2,0c0.1,0,12.1-2.2,13.6-48.9c1.5-46.7,0.1-51.9,0.1-52.1
		c-0.1-0.4,0.1-0.9,0.5-1c0.4-0.1,0.8,0.1,1,0.5c0.2,0.4,1.5,5.4,0,52.6c-1.5,45.7-13,50-14.8,50.4
		C733.2,1615.3,732.5,1615.7,731.6,1615.7z"/>
	<path class="st2" d="M458.1,1541.9c-1,0-2.3-0.2-3.7-0.7c-6.5-2.4-12.5-10.7-17.7-24.7c-10.3-27.8-13-87.2-14.1-109.5
		c-0.1-2-0.2-3.6-0.2-4.8c0-0.9,0.6-1.6,1.5-1.7c0.9,0,1.6,0.6,1.7,1.5c0.1,1.2,0.1,2.9,0.2,4.8c0.9,20.1,3.8,81.2,13.9,108.5
		c6,16.1,11.8,21.3,15.6,22.7c2.8,1.1,4.5,0.2,4.6,0.1l0.3-0.2l0.4,0c0.2,0,19.1-2.6,21.7-57.3c1.8-37.6,1.1-47.1,0.7-49.5
		c-0.7-0.4-1-1.3-0.7-2c0.4-0.9,1.2-1.3,2.1-1.1c1.7,0.4,3.5,0.8,1.1,52.8c-2.6,54.7-21.4,59.8-24.3,60.3
		C460.7,1541.5,459.6,1541.9,458.1,1541.9z"/>
	<path class="st2" d="M424.5,1483.3c-0.8,0-1.5-0.1-1.8-0.2c-2.1,0-17.5-1.6-23.4-37.3c-5.5-33.4-4-34-2.9-34.4
		c0.6-0.2,1.3,0,1.7,0.5c0.4,0.6,0.2,1.3-0.3,1.7c0,0,0,0,0,0c-0.1,1.6,0,7.8,3.9,31.8c5.8,35.2,21,35.3,21.1,35.2h0.2l0.2,0.1
		c0.1,0,8.4,2.4,14.7-16.4c6.2-18.5,4.2-58.2,3.6-71.3c-0.1-1.3-0.1-2.4-0.1-3.2c0-0.7,0.5-1.2,1.1-1.2c0.6,0,1.2,0.5,1.2,1.2
		c0,0.8,0.1,1.9,0.1,3.1c0.7,14.6,2.6,53.3-3.8,72.2c-3,9.1-6.9,14.8-11.6,17.1C427,1483,425.6,1483.3,424.5,1483.3z"/>
	<path class="st2" d="M364.6,1495.8c-0.8,0-1.4-0.1-1.7-0.1c-2.6,0-19.2-1.3-24.7-30.7c-5.1-27.5-3.6-28.2-1.8-29.2
		c1.1-0.5,2.3-0.2,3.1,0.7c0.8,0.9,0.8,2.3-0.1,3.2c-0.1,1.7,0.2,7.2,3.4,24.4c5,26.9,19.5,26.8,20,26.7l0.3,0l0.4,0.1
		c0.3,0.1,8,1.5,14.5-12.8c6.7-14.6,5.5-46.3,5.2-56.7c0-1.1-0.1-1.9-0.1-2.6c0-1.3,1-2.4,2.4-2.5c1.4,0,2.4,1,2.5,2.3
		c0,0.6,0,1.5,0.1,2.5c0.4,11.8,1.5,43.2-5.6,58.8C376.3,1493.9,368.3,1495.8,364.6,1495.8z"/>
	<path class="st2" d="M800,1622.2c-4.4,0.1-6.2-5.1-7.4-10c-2.6-10-3.1-18.9-3.6-37.1c-0.7-22.9-1.3-68.8-1.3-69.2
		c0-0.3,0.3-0.6,0.6-0.6l0,0c0.3,0,0.6,0.3,0.6,0.6c0,0.5,0.6,46.4,1.3,69.2c0.5,18.1,1,27,3.6,36.8c1.9,7.4,3.9,9.8,7.5,8.9
		c0.3-0.1,0.7,0.1,0.7,0.4c0.1,0.3-0.1,0.7-0.5,0.7C801,1622.1,800.5,1622.2,800,1622.2z"/>
	<path class="st2" d="M768.4,1565.9c-8.2,0.1-15.6-5.6-22-16.9c-8.4-14.8-12.5-42.6-14.5-63.4c-0.1-0.9,0.6-1.7,1.5-1.8
		c0.9-0.1,1.7,0.6,1.8,1.4c2.8,29.3,7.7,50.8,14.1,62.1c5.8,10.2,12.2,15.3,19.2,15.2c21.6-0.3,28-24.4,29.8-38.7
		c4.5-34.4,1.5-40.2,1.2-40.7c-0.5-0.6-0.6-1.4-0.1-2.1c0.5-0.7,1.5-0.8,2.2-0.3c1.2,0.9,4.7,6.7-0.1,43.5
		C796.7,1560.2,778.7,1565.7,768.4,1565.9z M799.5,1483.3L799.5,1483.3L799.5,1483.3z M799.5,1483.3L799.5,1483.3L799.5,1483.3z
		 M799.3,1483.2L799.3,1483.2L799.3,1483.2z"/>
	<path class="st2" d="M658.6,1221.9c-3.1,7.2-13.6,20.5-13.4,38.6l7.2,2.8c0,0-2.3-14.9,14.8-39L658.6,1221.9z"/>
	<path class="st2" d="M450.9,1300.8c-1.2-9.1,0.3-19.8,4.9-33.2l-6.5-4.7c0,0-2.8,7.2-4.8,16.8c0,0-16.6-16.3-28.3-12.5l-2.1,2
		c0,0,16.5-2.3,29.1,17.8c0,0-2,9.6-0.9,14.4C443.5,1306.3,450.9,1300.8,450.9,1300.8z"/>
	<path class="st2" d="M766.2,1590c-0.3,0-0.7,0-1.1-0.1c-0.4-0.1-0.7-0.5-0.6-1c0.1-0.4,0.5-0.7,1-0.6c0.6,0.2,1.2,0.1,1.6-0.2
		c1.3-0.8,2-3.7,2.5-6c1.5-6.9,2.2-12.2,2.7-25.2c0.6-16.2-1.3-50.1-1.3-50.5c0-0.4,0.3-0.8,0.8-0.8c0.5,0,0.8,0.3,0.8,0.8
		c0,0.3,2,34.3,1.3,50.6c-0.5,13.1-1.2,18.4-2.7,25.4c-0.6,3-1.5,5.9-3.2,7.1C767.4,1589.8,766.8,1589.9,766.2,1590z"/>
	<path class="st2" d="M593.4,1489.3c0.3,0.3,7.9,13.4,8.2,13.7c0-4.1,1.9-7.2,2.7-11c0.4-1.7-1-2.8-0.5-4.5c0.9-2.8,4.5-1.2,6-2.9
		c1.6-1.9-1.1-2.4,0-4.2c1.5-2.3,5.4,1.3,6.9-1c0.5-0.8,0.3-3.6,1-5c2.5-4.4,7-7.1,11.2-9.3c2.7-1.4,5.7-1.8,8.4-3.1
		c1.9-0.9,2.8-2.2,4.2-3.5c-1.3,0.8-3.2,1.9-4.7,1.2c1.7-5.7,8.1-14.8,14.7-15.6c0.6,1.2,0.3,2.3-0.3,3.4c2.5-2.4,4.2-5.2,7-7.3
		c3.1-2.3,5.5-4.4,7.7-7.6c3.8-5.5,8.1-10.3,13.7-14.1c3.4-2.3,1.7-2.9,2.8-6.4c0.9-2.7,4.1-2.5,5.3-4.5c1.5-2.3-0.3-4.7,3.3-6
		c3-1.1,6.5-0.3,9.6-1.7c3.2-1.5,4.5-4.6,6.8-7c3.9-4.1,8.2-7.3,11.8-11.7c3.7-4.4,7.1-9.1,10.2-13.9c3.9-5.9,8.5-12.6,11.9-19.4
		l-2.7-6.2c-5.2,10.8-35.7,49-35.7,49c13-26.6,7.4-49.2,7.4-49.2l-10-8.2c-0.3,15.5,1.6,24.3-6.1,46c-7.7,21.7-40.8,51.2-40.8,51.2
		c-6,6.1-34.4,28.5-34.4,28.5c-7.7,3.4-13.7,9.6-18.2,16.1C596,1481.9,593.4,1489.3,593.4,1489.3z"/>
	<path class="st2" d="M972.2,1476.5c0,0,16.7-0.9-4.6-24.9c0,0-13.6-6.6-29.2-1.4c0,0,14.9-7.2-15.3-9.3c2.9,0.1,12.3-1.3,12-20.5
		c-0.3-22.8-13.8-21.9-13.8-21.9s4.7-20.7-24.5-25.3c0,0,18.7-18-14.2-23.7c0,0,24.1-12.1-10.2-17.3c0,0,18.5-1.7-6.2-14.2
		c0,0-11-0.6-23.1,2.1c0,0,3.4-9.3-10.4-9.1c0,0,19.5-3.8,11.9-16.9s-23.5-4.3-23.5-4.3s-11-24.8-40-9.8c0,0,21.6-39.1-8.6-35.5
		c0,0-14.2-26.2-40.4-12.7c0,0,2-8.2-31.4-2.1c0,0,14.1-8.4-0.3-20.7c0,0,9.6-27.9-22.7-19.7c0,0,11.2-16.5-3.1-17.8
		c0,0,13.8-4.8-4.9-20.9c0,0-15.3-10.6-22.9-3.8c1.8-1.8,5.8-6.9-9.9-2.9c0,0-4.8,3-7.8,7.4c-1.7-3.6-6.4-5-17.7,1.1
		c-25.8,13.8-16.3,35.4-16.3,35.4s-20.9,10.6-14.2,29c0,0,0.8,7.1,9.8,13.8c0,0-4.7-2.8-6.7,4c0,0-3.8-16-26.6,5.7
		c0,0,6.5-19.3-10.2-22.7c0,0,14.6-1.6,8.2-29.3c0,0-7-18.4-17.9-11.2c0,0-9.2-20.5-26.4-4.3c0,0-4.2,2.2-2.4,6.8
		c0,0-5.9-15.2-22.1-6.5c-16.3,8.8-19.5,36.2-19.5,36.2s-8.7-14.1-19.7-7.9c0,0,5.9-11.1-5.5-10.3c0,0,8.2-2.2,3.1-7.9
		c-5-5.6-8.2,1.5-8.2,1.5s-36.5-10.9-46.3,30.1c0,0-23.7,8.8-11.1,21.5c0,0-4.6-2.1-7.1,2.9c0,0-1.5-7.1-7.5-5.2
		c0,0-2.6-10.7-16.6,7.7c-14,18.3-4.3,24.6-4.3,24.6s-5-0.3-7.1,4.4c0,0-16.7-23.7-36.3-1.7c0,0-23.5-4.3-24.6,28.1
		c0,0-17.4,6.3,10.7,27.6c0,0-6.8-0.6-6,4.3c0.8,5,7.6,6.7,8.6,7c0,0-47.1-8-33.7,35.3c0,0-7.2,1.9-2.3,9c0,0,0,0,0,0
		c-4.9,4.5-9.4,12,1,20c7,5.4,16.1,6.1,24.3,5.1c-4.1,6.5-3.4,14.3,18.6,18c-1.3,6.2,0,13.6,9.5,19.6c17.4,11.2,19,14.8,23.6,8.9
		c4.6,3.4,10.6,5.6,16.1,0.9c3.7,5.5,11.3,11.5,26.1,8.6c21-4.1,18.1-23.8,16.5-30.2c1.8-0.6,3.7-1.5,5.3-3c4,1.8,8.9,2.2,12.5-3.8
		c3.5,3.1,9.3,5.6,18.2,2.2c8.3-3.1,10.5-8.5,10.7-13.2c0.9-0.7,1.9-1.8,2.9-3.4c3.8,1.2,8.4,1.1,13.1-2.4c3.3,3.1,9.4,4.7,20.1-1.6
		c5.6,3.2,13.2,6.1,17,0.5c5.9-8.8,9-12.8-2.7-18.4c0.2-1.4,0.3-3-0.3-4.9c1.5-1.2,2.4-3.4,0.1-7.7c4,0.2,7.6-1.6,7-8.6
		c-0.2-2.7-0.6-4.9-1-6.9c3.9-1.2,8.1-4.2,10.6-10.9c6.4,5.5,16.3,11.4,25.8,7c0.4,1.2,1,2.3,1.8,3.2c-2.4,3.2-4.3,7.8,3.4,8.3
		c2.8,0.2,4.2-0.6,5.9-1.5l-1.2-7.6c7.7,3.6,6.9-2.9,6.9-2.9s1.6-0.6,2.9-3.1c3.8,2.4,9.7,4.1,19.1,2.6c2.7,3,6.7,5.5,12.8,5.9
		c-0.6,3.4,1.1,7.4,11.7,8.8c3,0.4,9.6,1.7,9.5-5.5c6,0.8,15.9-0.2,16.6-14.1c0,0,4.2-1.5,4.2-6.2c6-0.7,16.7-4.3,20.5-19.9
		c3.7,1.1,9.5,0.7,18-3.8c2.2,5.1,7.3,9.7,19,7.8c2.5,2.5,7.3,4.2,16.1,3.1c2.4,7.5,10.8,17.8,38.7,19.7c-0.1,2.6,0.8,5.4,3.9,7.6
		c-0.8,4.8-0.4,11.8,7.8,13.8c-0.1,3.7,1.3,8.7,7.8,12.9c-7.2,1.7-15.8,5-11.1,10.3c-4.2,2.2-9.5,6.6-11,15.3l0.2,3.6
		c-6.7,5.4-22.1,23.1,9.7,38.7c0,0-5.6,6.1,11.2,9.1c0,0-21.4-3.3-3.2,29.9c0,0-11.7,6.6,15.2,16.5c0,0,12.7,15.2,20.8,7.9
		c0,0,19.3,2.6,8.5-6.5c0,0,16.5,5.5,24-15.2c0,0,8.6,14.6,28.2,14.6c-3.2-0.1-23.4-0.3-23.7,9.2c-0.2,10.3,20.4,7.9,20.4,7.9
		s-20.2,5.6,25,9.3c45.3,3.7,26.5-12.4,26.5-12.4s25.7,2.5,21.1-19.5c0,0,30,4.3,35.5-7.2c0,0,3.3,6,14.2-0.5
		C975.9,1489.9,983.6,1477.8,972.2,1476.5z M466.6,1299.6c-5.4-3.5-12.6-6.1-20-2.5c-4.8-2-11-2.8-17.8,0.6c3.9-5.9,7.4-15-7.3-16.3
		c2.5-1.5,6.4-4,6.2-5.8c-0.1-1.7-3.3-2-5.7-2c2.9-3.3,6.8-8.4,7.6-13.1c4,6,10,11.2,18.9,7.5c0.2,2.2,0.9,4.5,2.8,6.4
		c-1.8,2-2.1,4.6,2.9,7.3c8.5,4.7,12.7,7.1,18.4,6.2C469.2,1291.2,466.6,1295,466.6,1299.6z M683.8,1241.2
		c-3.1-0.8-7.4,0.7-12.6,9.8c-3,0.6-6.4,2.1-9.6,5.2c-5-4.7-11.7-8.2-20-6.7c-5.5-1.7-13.6-1.8-23.7,4.5c-1.2-1.1-2.7-2-4.2-2.8
		l-1.3-0.9c9.3-0.1,14.2-2,16.9-18c0,0,0-0.1,0-0.1c1-0.4,2.1-1,3.2-1.9c2,1.9,5.1,2,9.8-2.2c5.1,2.5,13.4,4.5,26.3,2.4
		c3,2.7,8.9,4.9,19.8,5.3c0,0.7,0.2,1.6,0.5,2.6C687.2,1239,685.5,1239.8,683.8,1241.2z"/>
	<path class="st2" d="M767,1294.2c-0.6-0.2-1.4-0.8-2.5-0.5c15-0.2,42,2.5,51.8,15.3c4.1,5.3,3.1,10.6,0.5,16
		c-2.7,5.5-2.7,8.6,3.9,11.8c6.6,3.2,16.4,3.5,23.3,1.9c2.5-0.6,7.1-4.1,4.8,2.2c-2.7,7.3-21.5,1.6-26.6,9.2
		c14.5,0.8,27.6,1,40.9,7.8c7.4,3.8,17.4,12,16.5,21.5c-7-4.4-12.2-16-22-16.2c1.6,3.1,19.9,17,7.9,16.3
		c-5.1-0.3-24.6-16.9-28.6-6.7c-1.8,4.7,9.3,12.2,12.2,13.8c7,4,14.8,4.2,22.4,6.1c9.6,2.4,23.7,8.9,27.4,18.8
		c-5.3-3.4-16.1-5.8-22.5-4.8c3.4,4.8,11.4,6.3,15.6,10.3c-5.7,0.6-11.4-0.8-16.9-0.7c7.6,6.4,17.1,10.6,23.7,18.1
		c3.3,3.7,6.5,7.8,9.4,11.9c2.5,3.6,4.8,11.6,8,14.2c-8.4-7-20.6-8-28.9-13.9c-0.1-0.2,1.1,0.6,0.9,0.6c-0.7,4.6,3.4,8.3,4,13
		c-5.9-6.5-16.4-10.4-25.2-9c2.5,3.2,7.1,4.8,10.6,6.6c-7.3-0.7-13.3-0.8-20.5,1.4c4.6-0.2,16.7-0.2,18.5,4.5
		c-4.6,0.3-9.9,1.4-14.1,3.5c6.7-0.2,42.3,10.7,35,16.8c-7.5,6.3-30-2.9-37.3-5.8c-6.7-2.6-13-6.5-20-8.1c-4-0.9-16.3-3.2-19.6-1.2
		c4.6,5.2,11.4,11.4,13.4,18.3c-7.4-5.8-17.7-11.8-27.1-13.9c-8.1-1.8-11.4-2.1-8.7,6.2c2.2,6.6,4.6,14.2-4.9,15.2
		c-12.8,1.3-22.1-11.8-30.5-19.2c3.3,2.2,14.2,7.3,17.5,4.1c5.3-5.2-10.2-18.5-13.1-21.7c-6.2-6.9-17.2-20.3-0.4-17.2
		c3.9,0.7,12.6,5.2,16.3,1.5c6.5-6.4-10.2-23.5-13.1-27.8"/>
	<g>
		<path class="st2" d="M610.5,1561.6c-6.5-10.6,1.3-12.2,1.7-17.2c0.6-7.2,0-15.7-4.2-22.1c-7.7,7.1-4.8,20.3-0.9,27.9
			c3-2.9,4.3-15,0.8-16.4"/>
		<path class="st2" d="M608.3,1549.2c1.3-4.4,1.8-9.9,1-14.6c-0.2-1.2-0.3-2.9-1-3.9c1.9,2,2.5,6,2.6,8.6c0.2,3.1-0.2,6.2-1,9.1
			c-0.5,1.8-1.6,3.5-2.2,5.4"/>
		<path class="st2" d="M608.7,1529c-0.9-1.9-1.8-0.1-2.3,0.9c-1.2,2.3-1.1,4.8-1.2,7.2c0,2.2,0,5,1.1,7c0.8,1.4,1.3,0.7,1.6-0.5
			c0.5-2.2,0.8-5.2-0.2-7.3c0,1.5,0.7,4.6-0.7,5.6c-1.8-1.2-1.2-5.5-1.1-7.2C606.1,1533.7,606.5,1529.7,608.7,1529z"/>
	</g>
	<g>
		<path class="st2" d="M603.2,1634.9c-0.7,4-0.3,8.6,3.5,12c7.3-4,4.9-11.2,1.4-15.4c-2.8,1.6-4.3,8.3-1.1,9"/>
		<path class="st2" d="M606.9,1632.2c-1.3,2.5-1.9,5.5-1.2,8c0.2,0.7,0.2,1.6,0.9,2.1c-1.7-1-2.2-3.2-2.2-4.7
			c-0.1-1.7,0.3-3.4,1.1-5c0.5-1,1.5-2,2.1-3"/>
		<path class="st2" d="M606.1,1643.2c0.8,1,1.6,0,2.1-0.5c1.1-1.3,1.2-2.6,1.2-4c0.1-1.2,0.1-2.7-0.9-3.8c-0.7-0.8-1.2-0.3-1.5,0.3
			c-0.5,1.2-0.9,2.9,0,4c0.1-0.8-0.5-2.5,0.8-3.1c1.7,0.6,1,3,0.8,3.9C608.6,1640.6,608.1,1642.8,606.1,1643.2z"/>
	</g>
	<path class="st2" d="M633.3,1470.5c-6.2,0.1-12.3,5.7-13.3,11.3c-3.2-2.3-5.5,1.6-4.7,4.6c-2.6,0.1-5.9,3-6.7,5.5
		c-1,3.5,2.3,5.9-0.2,9c-2,2.6-5.2,4.1-2.3,7.6c1.7,2,4.2,3.5,5.6,5.7c0.6,1,1,4.4,2.3,4.8c1.2,0.3,0.4-4.9,0.3-5.8
		c-0.3-4.9-0.3-9.8,0.8-14.4c0.7-3.2,2.1-5.5,3.8-8.3"/>
	<path class="st2" d="M673.7,1265.5c0.2-6.9,9.2-14.8,13.6-19.3c-2.1,6.2-0.8,11.7-0.1,18c4.5-11.4,22.6-28.4,35.8-26.4
		c-2.1,3.9-7.2,7.2-9.4,12.1c3.6-2.1,7.7-3.4,11.3-5.8c2.9-1.9,7.7-9.2,10.5-7.3c4.5,3,1.3,15.2-1.7,17.9c-5,4.5-13.3,2.3-17.8,6.1
		c5.6,8.4,19,3,25.4-1.1c7.4-4.8,22.5-13.4,30.1-4.5c-7.8,1-13.7,15.2-22.1,9.4c5.5,5.7,16.2,3.1,23.3,3.6
		c-5.5,2.8-18.2,10.5-20,16.6c6,0.3,14.8-0.9,19.2,4c-4.1,2.3-17.9,5.9-15.3,12.6c20.1-7,37.9-14.5,58.6-2.8
		c-6.8,2.1-21.8,1.2-26,7.3c3,2.7,10.2,6.9,8.3,12c-2.5,6.5-16.7,4.7-21.9,5.6c-8.7,1.6-4,3.6,0,8.6c4.9,6,11.9,19.9,7.3,27.6
		c-5.1-6.9-9.1-13.1-16.1-18.8c-5.8-4.7-17.7-16.2-25.8-15.7c8.1,8.1,12.1,16.7,16.6,27.1c-8.9-5.6-22.9-26.2-34.2-17.7
		c-5.5,4.2-8.5,6.6-15.1,0.5c-6.2-5.7-8.2-16.9-16.6-20c1,2.2,1.4,4.9,1,7.4c-12.2-6.5-24.5-7.7-38.4-7.5"/>
	<path class="st2" d="M601.2,1227.9c-8.2-2.5-10.2-19.1-6.1-25.3c-2.6,5.4,7,12.9,11.8,12.9c0.9-5.6,3.7-10.6,2.5-16.8
		c-1.1-5.8-5.9-10.8-9.2-15.4c6,1.3,10.2,3.6,13.4,9c0.3-6.4-2.6-11.1,0.7-17.3c3.5-6.5,11.2-12.2,18.6-12.6
		c-0.1,2.7-2.1,4.2-3.6,6.3c-2.6,3.9-4.4,7.8-4.7,12.6c-0.3,5.4,2.9,12.4,7.2,6.1c3.1-4.6,3.2-13.6,5.5-19c2-4.8,9.9-17.8,16.5-12.3
		c-2,1.6-4,3.7-4.2,6.4c2.9-0.3,13.5,0.6,14.6,3.6c1.2,3.3-8.9,12.7-9.6,17.7c3.5-0.6,8.2-2.4,11.2-0.1c-3.9,4.6-8.9,12.2-9.4,18.2
		c9.1-4.8,25-5.5,32.2,3.4c8.4,10.4-8.1,1.6-12.9,4c0.6,1.3,1.9,1.3,2.6,2.4c3.5,5.5,8.4,9.8,11.4,15.9"/>
	<path class="st2" d="M390.5,1250.3c-8.2-9.6,6-14.5,13.6-12.7c10,2.4,18,11.6,29,10.6c18.3-1.7,5.4-28.5-7.5-29.3
		c6-12.2,27.5-8.1,32.7,2.6c3.4,6.9,1,14.9,2.8,22.2c1,4.4,3.5,8.3,5,12.5c3.4-2.9,0.4-11,0.2-15c-0.1-4.1,0.6-7.8,1-11.6
		c4.8,0.7,10.5,9.9,13.9,13.6c-1.9-13.5-1.6-31.7,9-42c8-7.7,22.5-9.3,33.1-8.5c-3.8,3.7-11.1,6.4-13.1,11.7
		c4.6-0.4,11.8-1.8,15.7-4.3c-3.1,5.8,1.3,11.8-0.1,17.9c-1.8,7.5-15.4,8.2-15.9,14.3c-0.5,6.3,10.4,5.9,14.2,4.6
		c6.2-2.2,9.5-8.7,16.1-10.2c-1.1,2.5-3.5,4.3-4.7,7.3c-2.3,5.8-2.6,13.8,0.9,19.1c6.5,10,8.6-3.7,14.1-7.9
		c-1.2,5.7-2.1,17.3,0.5,22.8c7.6-4.7,23.1-24,33.4-15.9c-4.2,4.3-13,10.9-12.6,17.6c3.5,0.1,7.7-1.3,11.5-1.6
		c9.5-0.6,18.6,1.4,27.8,3.9c4.2,1.2,30.8,9.3,21.3,15.8c-2.6,1.8-25.2,3.3-23.4,9.9c1.2,4.5,16.1,4.3,18.3,10.9
		c-6,0.3-16.6-1.8-21.2,3.1c3.8,8.2,8.1,17.5,10.3,26.4c-7.3-4.9-13.8-15.9-22-19.3c-0.5,5.7-0.4,13.4,0.7,19
		c1.1,5.7,6.8,12.8-0.6,13.9c-9.7,1.5-22.1-12.4-29.4-16.6c-5.7-3.2-20.7-8.8-27.1-5.1c1.7,6.1,9.9,8.8,13.9,13.2
		c-6.1-1.1-23.5-9.8-28.3-3.9c-3.9,4.8,4.5,17.8-7,6.8c-6.9-6.6-14.3-19.9-19.3-6c-1.7,4.7-0.6,6.4-5,3.4c-3.6-2.4-4.7-7.6-8-10
		c-2.6,4-4.8,7.9-6.1,12.5c-1.5,5.2-0.3,10.9-2.3,15.8c-6.5-4.8-19.1-6.7-9.6,3.8c1.9,2.1,10.4,10.6,8.3,14.1
		c-1,1.8-4.9,0.4-6.9,0.4c0.3,5.5,12.8,21.8,1,18.1c-5.7-1.8-11.7-8.7-18.3-7c-2.3,0.6-3.7,3-5.9,3.8c-7.7,2.9-19.2-1.6-26.3-3.7"/>
	<path class="st2" d="M301.8,1422.9c2.6,3.2,6.4,4.2,9.4,6.8c0-4.6-1.8-13.1-7.1-13.9c9.8,1.5,18.8,8.6,25.5,15.6
		c3.8,4,7.4,11.4,12.3,13.9c-0.2-4.8,1.7-9.3,1.4-14c6.3,4.4,11.8,8.8,19.6,10.2c4.1,0.7,7.8-0.1,11.6,2.1
		c-16.3-8.8-14.5-27.5-17.8-42.4c7.9,11.7,23.7,12.4,36.2,14.2c-4.5-3.9-17.1-7.9-15.9-15.3c7.1,0.1,43.7,12,45,6.1
		c1.9-8.7-24.1-9.2-17.3-21.4c10.7,4.5,19.9,9.7,32.2,8.7c7.8-0.7,15.3-7.5,23-6.6c-8.6,0.4-19.1-0.5-25.6-6.8
		c-4.6-4.5-4.8-9.9-6.5-15.3c7.4,1.2,16,3.1,23.4,2.9c-2.6-13.2-40.6-20.6-26.7-34.1c6.7-6.5,18-0.9,24.8-5.6
		c6.3-4.4-3.8-6.1-8.4-7.9c4.6-7.9,17.1-5.8,24.5-10.3c-11.4-15.7-38.7,4.2-50.8,7.5c-13.8,3.7-6.6-14.9,1-17.4
		c-6.6-0.1-30.1,9.8-31.4-2.1c-0.9-7.7,16.1-18.7,22.3-22.2c-6.1-2.2-13-2.8-19.5-2.4c4.4-4.3,11.1-6.7,15.2-10.8
		c-10.1,0.2-34.5,10.3-38.3,20.9c-6.9-5.6,10-17.6,2.2-24.3c-10.1-8.6-12.2,24.7-14.1,27.4c-2.2-3.3-7.2-4.8-10.6-6.9
		c-4.9,5.9-4.2,11.7-6.4,18.2c-5.2-10.9-8.6-28.6-24.5-28.5c5.9,7.9,4,14.8-7.8,15.7c-6,0.4-9.8-2.8-12.7,2.3
		c-3,5.2,1.8,8.8,1.6,14.2"/>
</g>
<path class="st2" d="M179.3,2470.5c-0.2-0.4-0.9-0.7-1.5-0.9c-2.8-0.8-5.7-1.4-8.4-2.4c-2.6-0.9-5.1-2.1-7.5-3.5
	c-2.6-1.6-4.9-3.8-7.6-5.2c-5.3-2.8-10.1-6-13.6-11.1c-2.1-3.2-4.3-6.4-6.4-9.6c-1.6-2.4-2.5-5-1.1-7.9c1.5-3,3.5-5.8,4.6-9
	c1.8-5.4,2.6-11.1,4.7-16.4c7.7-20,18.2-37.9,37.5-49.3c5.1-3,6.1-7.9,3.2-11.9c-4.1-5.8-8.2-11.6-11.7-17.7
	c-6.4-11.1-14.2-30.3-14.4-43.4c-0.1-4.6,2.1-9.5,2-14c-0.1-7.1-1.9-11.8,1.5-18.6c1.4-2.7,5.5-5.4,6.1-8.4
	c0.6-3.4-3.6-8.1-3.5-11.8c0.1-5.1,3.5-12.1,7-15.4c15-14.5,38.3-14.7,57.4-15.3c6.5-0.2,13.1,0.8,19.6,1
	c13.8,0.5,27.4-0.7,40.8-3.8c9.1-2.1,18.1-5.1,27-8.1c9.5-3.1,18.8-6.9,28.3-9.8c5.6-1.7,11.7-3.4,17.6-3.8c1.3-0.1,4-1.1,5-0.7
	c1.5-1.4,4-0.5,5.6,0.1c-0.3-0.5-1-0.9-1.4-1.3c1.8-0.6,4,0.2,5.8,0.7c-0.6-0.7-1.7-1.1-2.2-2c2.2,0,4.4,1.3,6.6,1.4
	c2.3,0.1,4.5,0,6.8,0.2c2.6,0.3,5.2,0.7,7.8,1.1c5.1,0.9,10.1,2.3,15.1,3.9c3.5,1.1,6.9,2.3,10.3,3.4c7.4,2.3,14.7,0,22.1-0.4
	c3-0.2,6.1-0.4,9.1-0.5c1.3-0.1,2.6,0.1,3.8,0.2c1.2,0.1,2.3-0.4,3.4-0.3c1,0.1,2,0.4,2.9,0.7c0-0.2,0-0.4-0.1-0.6
	c2,0.7,4.2,1,6.3,1.7c0-0.6-0.1-1.2-0.4-1.7c1.4,0.1,3.1,2.3,4.1,3.2c2.8,2.4,6.4,4.1,8.8,6.8c2.2,2.5,3.3,5.2,5.1,7.9
	c1.3,1.9,3.5,2.2,5.2,3.7c1.6,1.4,2,3.8,2.1,5.8c0.1,1.9,0.1,3.9,0,5.8c-0.3,3.5,0.6,6.3,3.6,8.5c2.9,2.1,2.6,6.9-0.3,8.4
	c-1.5,0.8-3.5,0.9-5.3,0.9c-3.4-0.1-5,1.4-4.8,4.8c0.1,3,0.4,6.1,0.3,9.1c0,1.1-0.6,2.2-1,3.2c-0.5,1.3-1.5,2.6-1.5,4
	c-0.1,4.1,0.4,8.3,0,12.4c-0.5,5.9-3.2,7.1-8.2,4.1c-0.1-0.1-0.4,0.1-0.6,0.2c0.7,6,0,6.8-6.2,6.3c-3.3-0.3-6.5-0.6-9.8-0.9
	c-9-0.8-17.4-3-24-9.7c-2.7-2.7-5.5-5.3-8.2-7.9c-0.5,0.2-0.9,0.4-1.4,0.5c1,5.2,1.9,10.5,3.1,15.7c2.1,8.9,4,17.9,1.4,26.9
	c-1.2,4.1,0,7.3,2.7,10.3c1.3,1.4,2.6,2.9,4,4.3c11.7,11.2,23.2,22.6,31.5,36.8c6.1,10.4,13.1,20.2,22.2,28.4
	c2.9,2.6,4.9,6.2,7.1,9.5c3,4.5,5.3,9.5,8.7,13.7c4,4.9,6.8,10.4,8.3,16.3c2.5,10.1,7.4,18.7,14.4,26.1c2.4,2.5,2.5,4.8,0,7.2
	c-1.2,1.2-3,2.5-3,3.8c0.1,3.2-2,3.4-4.1,4.1c-1.6,0.5-3.2,1.1-4.9,1.5c-6,1.5-12,4-17.6-1c-0.3-0.3-1-0.4-1.4-0.3
	c-5.3,1.8-8.2-1.8-11.1-5.1c-0.7-0.8-0.5-2.4-0.7-3.6c1.2-0.1,2.4-0.6,3.5-0.4c1.6,0.3,3.1,1,4.7,1.5c0.2-0.3,0.5-0.7,0.7-1
	c-1.5-2.3-2.4-5.4-4.4-6.7c-5.2-3.3-5.2-7.9-4-12.8c0.8-3.2,0.2-5.6-1.5-8.2c-3-4.6-6.1-9.3-9-14c-2.9-4.6-5.6-9.4-8.8-14
	c-3.5-5-8.8-8.3-12.7-13c-4.2-5.1-11.1-7.4-15.7-12.2c-2.5-2.6-5.6-2.4-8.6-4.4s-5.3-5.4-8.6-7c-2.9-1.4-5.8-2.5-8.3-4.6
	c-2-1.7-3.1-3.5-6-3.9c-0.4,3.4,0.2,6.9-0.1,10.3c-0.9,9.1-0.5,18.5-4.3,27.2c-1.4,3.2-3.3,6.2-4.2,9.6c-1.7,6-2.7,12.3-4.5,18.3
	c-1.1,3.6-3,7-4.5,10.5c6,3.8,10.5,8.7,12.4,15.6c1,3.8,0,5.6-3.8,6.3c-1.5,0.3-3.1,0-4.6-0.2c-3.4-0.4-6.9-1.9-9.5,1.7
	c-0.4,0.6-1.5,1-2.3,1c-7.3,0.4-14.6,0.5-21.3-3c-1.7-0.9-4.6-1.5-3.3-4.1c0.5-1.1,3.5-0.9,5.4-1.4c0.1,0,0.2,0,0.4,0.1
	c4.4,1.9,8.1,0.3,12-1.8c3.3-1.8,2.7-3.6,1.4-5.6c-3.1,0.3-5.9,0.6-8.6,0.9c-1.1,4.2-2.3,4.7-5.6,3.9c-4.9-1.1-9.8,6.7-14.8,6.5
	c-11-0.5-21.8-3.2-32.8-3.9c-8.1-0.5-11.4,2.1-19.4,0.9c-4.8-0.7-10.9-12-11.1-16.7c-0.1-1.9-0.5-4.3-1.7-5.7
	c-1.9-2.1-2.3-4.5-1.5-6.7c3.3-9,1.1-17.4-2.1-25.8c-1.6-4.3-3.2-8.6-4.7-12.9c-3.1-9.1-0.9-18,0.7-26.9c0.7-3.9,1.8-7.7-1.9-10.8
	c-6.4-5.3-13.5-9.1-21.5-11.6c-7.1-2.3-14.9-3.3-21.1-9.2c-0.8,3.9-2,7.1-2.2,10.5c-0.3,6.5-0.1,13.1,0.2,19.6
	c0.3,5.7-0.6,10.7-5.1,14.8c-7.3,6.7-11.5,15.5-14.8,24.6c-4.1,11.4-10.3,21.2-19,29.5c-4.3,4.1-8.7,8.1-12.5,12.6
	c-3.3,3.8-2,7.9,2.5,10c4.4,2.1,8.7,4.1,13.1,6.1c5.4,2.4,10.8,4.8,16.1,7.2c3.6,1.6,7.3,3.1,10.6,5.2c1.3,0.9,1.5,3.4,2.2,5.2
	c-1.9,0.6-3.9,1.3-5.9,1.7c-0.7,0.1-1.5-0.6-2.3-0.9c-6.7-2.6-13.7-3.3-20.9-3c1.7,1.6,3.6,2.9,5.6,3.8c2.5,1.1,3.1,2.9,2.2,5.2
	c-0.5,1.3-1.1,2.7-1.9,3.9c-3.5,5.4-5.8,5.4-8.9-0.2C185,2474.4,181.2,2475.2,179.3,2470.5z M368.6,2410.5c-1.2,0.1-2.4,0.3-3.6,0.4
	c-1.8,0.1-3.7,0.6-5.4,0.1c-1.5-0.4-2.7-1.9-4.1-2.9c1.2-1.3,2.2-3.1,3.7-3.9c3.1-1.8,6.5-3,9.7-4.6c0.5-0.2,1.1-0.7,1.3-1.2
	c4.3-10.2,9.4-19.9,5.5-31.9c-4.1-12.9-6.8-26.2-10.1-39.4c-1.4-5.4-3.1-10.6-6.6-15.1c-1.7-2.2-2.9-5-4-7.6
	c-0.8-1.9,2.8-7.9,5.4-9.6c3.6-2.5,7.2-5.1,10.8-7.7c0.9-0.7,1.4-1.8,2.1-2.7c-0.1-0.3-0.3-0.7-0.4-1c-0.8-1.8-25.9,4.3-28.8,4.6
	c-5.2,0.6-10,2.9-15.3,3.2c-6.4,0.3-12.6,1-18.9,1.9c-3.5,0.5-6.9,1.1-11.5,1.9c3.2,5.3,5.7,10.6,9.1,15c3.6,4.7,5.6,9.3,5.9,15.4
	c0.3,7.4,2,14.9,4.1,22c3.9,13.8,4.6,27.7,3.6,41.9c-0.4,5.4-0.6,10.9-0.8,16.4c-0.2,5,2.2,13,7.5,14.1c3.8,0.7,10.2,6.3,13.8,7.5
	c6,2,15,1.4,15,1.4c1.9,1.4,6-5.5,8-4.6C365.9,2419.1,367.2,2415,368.6,2410.5z"/>
<g>
	<g>
		<g id="Tree_7_">
			<path class="st1" d="M4239.2,257.5c-17.9-31.8-52.7-45.6-75.4-72.5c-4.3-2.2,22.8,40.3,20.4,36.9c-12.6,1.7-50.2-4.1-50.2-4.1
				c-17-1.7-62.8,11.9-81.4,20.4c-18.7,8.5-122.2,27.1-164.6,28.8l10.2,42.4c69.6,0,237.5-37.3,263-42.4c25.1-5,62.7-1.1,89.7,5.7
				C4247.8,264.9,4243.4,264.9,4239.2,257.5z"/>
			<path class="st1" d="M4176.6-270c-11.3,40.8-23.9,87.2-9.8,121c14.1,33.8,0,46.4,74.6,119.6c0,0,28.1,11.3,52.1,35.2
				c23.9,23.9,29.5,29.5,35.2,45c5.6,15.5-1.4,23.9,39.4,61.9c40.8,38,99.9,122.4,104.1,201.2l7,64.7l91.4-22.5c0,0,0-7-11.3-49.2
				s-45-118.2-81.6-164.6s50.6-164.6,50.6-164.6s60.5-66.1,57.7-129.4s-7-87.2-7-87.2l-49.2,22.5c0,0-1.4,4.2-1.4,26.7
				s3,92-40.8,105.5c-54.9,16.9-85.8-240.6-85.8-240.6l-33.8,21.1l7,77.4c0,0,8.4,91.4,61.9,163.2c0,0,19.7,18.3,14.1,42.2
				c-5.6,23.9-21.1,42.2-26.7,59.1c-5.6,16.9-8.4,22.5-12.7,23.9c-4.2,1.4-18.3-9.8-23.9-15.5c-5.6-5.6-22.5-28.1-32.4-42.2
				c-9.8-14.1-35.2-45-74.6-67.5c-39.4-22.5-56.3-59.1-60.5-74.6s-12.7-40.8-7-73.2c5.6-32.4,5.6-52.1,5.6-52.1L4176.6-270z"/>
			<path class="st1" d="M4900.3-22.5c-20.2,24.1-25.1,27.6-39.9,41c0,0-23.9-32.4-54.9-50.6c-31-18.3-78.8-45-84.4-71.8
				c-5.6-26.7,1.4-60.5,22.5-81.6c21.1-21.1,54.9-56.3,73.2-85.8c18.3-29.5,43.6-43.6,36.6-112.6l-43.6-18.3c0,0,4.2,11.3-8.4,42.2
				c-12.7,31-20.2,67.3-68.9,105.5c-22.7,17.8-23.9,21.8-33.8,24.6c-9.8,2.8-16.9,0-21.1-8.4c-4.2-8.4-4.2-40.1-4.2-58.4
				c0-18.3-2.8-43.6-2.8-43.6l-43.6,39.4l-18.3,45c5.6,61.9,16.9,125.2,36.6,163.2c19.7,38,36.6,64.7,70.3,97.1
				c33.8,32.4,45,40.8,46.4,64.7c1.4,23.9,5.6,31-8.4,47.8c-5.8,7-20,27.9-37.6,40.3c3.5,6.3,4.6,1.9,3,8.4
				c8.3,0.6,16.7,4.5,22.3,10.5c19.2-13.7,37.7-28.3,55.8-43.6c43.9-37.1,86.8-76.7,118.3-125.1C4910.3-2.5,4905.2-12.5,4900.3-22.5
				z"/>
			<g>
				<path class="st1" d="M4859.8,2487.8c2-1.4,2.9-3.8,1.8-8.4c-4.2-19.2-42.4-19.7-56.1-28.2c-17.3-10.8-32.7-30.7-41.7-48.8
					c-3.5-7.1-6.7-14.1-9.6-21.4c-5.7-14.3-17.2-24.7-24.3-37.9c-8.6-16-19.9-31-27.4-47.7c-13.4-29.7-18.3-84.6-22.8-95
					c-4.5-10.4-17.4-62.2-18.8-66.7c-1.5-4.5-41.6-1428-41.6-1428s1.5-277.4,0.4-296.3c-1.1-18.9,5.6-27.8,5.6-27.8
					c21.2-55.7,191.6-198.3,235-237.3c43.4-39,121.4-125.9,143.7-152.6c22.3-26.7,67.9-80.2,91.3-110.3
					c23.4-30.1,60.1-86.9,60.1-86.9l-22.3-52.4c-22.3,44.6-151.5,202.7-151.5,202.7c55.7-110.3,33.4-205,33.4-205l-41.2-34.5
					c-2.2,64.6,5.6,101.4-27.8,191.6c-33.4,90.2-172.7,211.6-172.7,211.6c-25.1,25.1-144.8,117-144.8,117
					c-56.3,24.1-91.2,83.8-109.5,124.2c-9-11.4-19.8-21.7-33.1-30.7c-75.7-51.2-130.3-69.1-154.8-79.1
					c-24.5-10-122.5-60.1-142.6-83.5c-20-23.4-51.2-78-57.9-109.2c-6.7-31.2-17.8-86.9-17.8-86.9l-10-66.8l-7.8-61.3l-41.2,10
					l21.2,124.8c0,0,6.7,125.9,34.5,168.2c0,0-145.9-94.7-171.5-164.9s-73.1-23-73.1-23c53.5,86.1,118.8,169.3,184.2,210.9
					c65.3,41.6,77.2,59.4,178.2,104c101,44.6,273.3,127.7,273.3,320.8c0,193.1-8.9,1211.9-8.9,1211.9s-3,234.7-8.9,282.2
					c-5.9,47.5-17.8,74.3-17.8,98c0,33.8-4.1,73-15.1,105.1c-5.3,15.5-13.8,28-22.5,41.8c-9.4,14.8-15.2,30.9-22.1,46.8
					c-15.3,35.2-51.9,53-84.3,69.6c-10.4,5.3-14.7,8.7-19.8,18.3c5.1,7.3,15,8.1,23.5,8.7c23.3,1.6,46.6-4.7,69.7-3.3
					c30.1,1.8,53.1,22.2,79.2,34.3c10.8,5,16.9,13.6,27.1,19c16,8.4,30.6,2,46.4-4c15.4-5.8,30.6-7.4,46.4-11.7
					c20.6-5.6,36.2-16.1,58.1-15.1c33.8,1.6,66.7,17.7,101.3,19.4c18.7,0.9,37.9,6.3,56,0.9c13.1-4,25.1-10.5,38.6-13.8
					C4852.6,2489.7,4857.2,2489.6,4859.8,2487.8z"/>
				<g>
					<path class="st1" d="M4586.7,652.1c-26.4-44.6,5.9-50.6,7.9-71.8c2.7-30.1,0.6-65.5-16.4-92.4c-32.6,29.1-21.3,84.3-5.4,116.5
						c12.4-11.8,18.9-62.5,4.3-68.5"/>
					<path class="st1" d="M4578.4,600.2c5.8-18.5,8.1-41.1,5-60.9c-0.8-5-1.1-12.1-4.2-16.4c7.9,8.3,10,25,10.4,36
						c0.5,13-1.1,25.7-4.6,37.7c-2.2,7.7-6.7,14.6-9.3,22.3"/>
					<path class="st1" d="M4581,516.2c-3.7-7.9-7.4-0.6-9.6,3.6c-4.9,9.4-5,19.8-5.2,30.1c-0.2,9.4-0.2,20.8,4.3,29.4
						c3.2,6,5.5,2.8,6.8-2.1c2.3-9.2,3.7-21.8-0.3-30.4c-0.3,6.2,2.6,19-3.2,23.4c-7.6-5.3-4.8-23-4.1-30.3
						C4570,535.4,4572,518.7,4581,516.2z"/>
				</g>
				<g>
					<path class="st1" d="M4552.8,957.4c-3,16.5-1.6,35.9,13.8,50.4c30.7-16.5,21-46.6,6.8-64c-11.7,6.6-18.5,34.6-5.1,37.6"/>
					<path class="st1" d="M4568.1,946.3c-5.7,10.2-8.1,22.7-5.6,33.5c0.7,2.7,0.9,6.6,3.6,8.9c-7.1-4.5-8.8-13.6-9.1-19.6
						c-0.3-7.1,1.4-14.1,4.8-20.8c2.2-4.2,6.5-8.1,8.9-12.4"/>
				</g>
				<g>
					<path class="st1" d="M4550.7,1818.8c5.7-10.2,8.1-22.7,5.6-33.5c-0.7-2.7-0.9-6.6-3.6-8.9c7.1,4.5,8.8,13.6,9.1,19.6
						c0.3,7.1-1.4,14.1-4.8,20.8c-2.2,4.2-6.5,8.1-8.9,12.4"/>
					<path class="st1" d="M4554.5,1772.7c-3.3-4.3-6.8-0.2-8.9,2.1c-4.7,5.2-5,11-5.3,16.6c-0.3,5.1-0.5,11.4,3.5,16
						c2.8,3.2,5.1,1.4,6.3-1.2c2.3-5.1,3.7-12,0.2-16.7c-0.4,3.4,2.1,10.4-3.3,12.9c-7-2.8-4.1-12.5-3.3-16.5
						C4544,1783.4,4546.1,1774.2,4554.5,1772.7z"/>
				</g>
				<path class="st1" d="M4686.6,273.5c-25.9-0.1-51.5,23.1-55.9,46.6c-13.2-9.7-23,6.3-20,19c-11,0.1-24.8,12.2-28,22.7
					c-4.5,14.7,9.1,24.6-1.3,37.6c-8.7,10.8-21.9,16.7-10,31.7c6.8,8.5,17.4,14.7,23,23.9c2.6,4.3,4,18.4,9.2,20.1
					c4.8,1.5,1.9-20.6,1.7-24.2c-1-20.5-0.7-41,3.9-60.1c3.2-13.1,9.1-22.8,16.1-34.3"/>
			</g>
			<path class="st1" d="M4198,245.7c-15.9-8-45.8-22.1-57.7-27l-6.3-0.9c-17-1.7-62.8,11.9-81.4,20.4
				c-18.7,8.5-122.2,27.1-164.6,28.8l10.2,42.4c69.6,0,237.5-37.3,263-42.4c23-4.6,63.5,0,89.7,5.7
				C4235.9,263.8,4213.5,253.6,4198,245.7z"/>
			<path class="st1" d="M5736.9,22.5c7.1-6.4,11.4-53.6,11.6-66.1c0.4-27.7-16.2-43.2-40-55.2c-175.9-89.3-395.6-109-588.7-131
				c-176.3-20.1-365-17.6-542.3-19.6c-216.8-2.4-435.2,0.9-652.1,3.5c-76.9,0.9-153.5,3.6-230.5,3.6c-62.3,0-132.3-8.9-192.9,7.5
				c-46,12.4-104.4,52.4-132.9,91c-55.4-12.3-104.3-3.2-125.7,52.2c0,0-5.3,53.5,57.4,77c-15,1.7-28.8,11.2-31.2,39.4
				c-3,34.6,25.9,41.6,53.9,40.4c15.1,13.7,40.3,28,81.2,30.8c0,0-3.2,30.6,60,5.7c2.7,3.1,5.6,6.3,8.8,9.7
				c-14.8,2.3-32.9,10.6-53.8,29.9c-29.3-13.2-57.3-6.7-63.2,59.3c-24,1.1-46.6,10.6-64.3,33.9c-33.1-3.6-59.2,9-65.6,52.9
				c0,0,16.4,81.3,143,77.2c25.3,21.3,58.1,38.2,93.4,27.9c0,0,28.1,39.4,150.1-20.6c0,0,109.5,96.9,195.4,21.8
				c25.6,1.9,44.3-7.4,35.5-43.9c35.6,10.5,72,3.9,90-51.2c26.4-5.6,50.4-12.2,54.3-18.6c9.1-14.6,32.5-79.2-56.8-71.9
				c-30.2-37.9-82.5-78-154.9-42.6c-0.9,0.4-31-18.8-35-20.3c-12.6-4.7-29.2-8.6-42.7-9.2c22.5-20.5,22.9-38.3,29.3-68
				c3.2-0.1,7.3,1.4,9.8,1.3c6.5-0.2,18.4,7.1,25.2,9.2c18.4,5.6,36.4,9.3,55.5,10.8c29,2.3,77.9,6.1,102.5-12.8
				c1.1,11.7,15,15.3,25.8,13.7c19.7-3,25.3-21.9,34-37.2c15.7,20,59.7-3.2,77.1-12.3c15.6,20,46.7,26.9,70.6,28.9
				c30.3,2.5,51.4-11.9,78.4-16.8c7.5,23.5,14.7,50.5,36.5,65c17,11.3,62.5,25.4,79.8,6.4c6.1-6.7,6-15.7,8.2-24
				c12.8,33.9,85.4,6.2,102.6-14.2c7.7-9.2,9.8-27.8,20.9-30.3c2.9-0.6,16.9,8.1,19.3,8.9c17.8,6.2,40,6.4,58.3,1.8
				c10.7-2.7,30.6-22.6,39.4-22.3c4.5,0.2,4.3,4,8.3,5.1c5.2,1.5,14.6,10.6,19.4,13.3c19,10.6,41.9,17.2,63.4,19.5
				c21.9,2.4,46.7,1.2,64.2-13.8c15.1,57.5,82.2,81.5,136.1,87.2c41,4.4,91-3.3,121.8-33.5c12.7-12.5,15.9-36.7,30.4-45.1
				c50.6,96.6,220.1,145.9,323.3,123.8c14.5-3.1,34.7-12.7,46.3-22.3c10.8-9,23.4-18,33.9-27.6c12.6,17.2,31.3,31.9,47,25.3
				c9.3,20.4,16.3,11,74.2-9.3c31.3-11,40.2-31.4,40.8-50c65.9,4.7,73.3-17.4,66-39c23.1,8.6,49.7,12.8,73.5,2.2
				C5755.6,63.5,5747.8,38.9,5736.9,22.5C5736.8,22.5,5736.8,22.5,5736.9,22.5z"/>
		</g>
	</g>
	<g id="Zi1U07_4_">
		<g>
			<path class="st1" d="M4293.1,363.2c-8.9,2.6-17.5,6.5-26.2,9.9c-15.7,6.1-25.4,17.8-30.6,33.3c-3.9,11.7-7,23.6-10.2,35.5
				c-2.8,10.5-4.5,26.5,3.9,35.2c-0.8-0.4-1.7-0.6-2.6-0.9c1.1,1.1,2.4,2.3,3.2,3.7c-0.6-0.1-1.3,0.2-1.9,0.2c0.8,1,1.9,1.8,2,3.2
				c-0.3,0.1-0.7,0.2-1,0.3c0.3,1.2,1.3,1.5,1.7,2.6c0.5,1.3-0.1,1.5,0,2.3c0.5,3.8,1.2,7.5,1.8,11.2c1.3,8.6-1.2,16.2-9.4,21.1
				c-6.3,3.7-12.4,7.9-18.6,12c-0.7,0.5-1.5,1.7-1.3,2.3c2.9,8,1.8,16.1,0.4,24.1c-2,12.1-6.5,23-15.3,31.8c-1.6,1.6-3.9,3-4.4,4.8
				c-1.3,4.9-4.6,6.9-8.9,7.1c-8,0.3-16.1,0.8-23.9-0.3c-7.4-1-12.3,1.5-16.4,6.8c-0.6,0.7-1.3,1.4-1.7,2.2c-1.7,2.8-4.4,3-7.7,3.2
				c0.1-1.7,0.2-3.1,0.3-5c0,0.9-5.6,3.4-6.6,3.9c-2.2,1.2-4.4,2-6.6,3.1c-2-2.8-1.9-4.1,0.8-6.2c3.1-2.5,6.4-4.8,9.6-7.2
				c-2.4,0.4-4.4,1.5-6.5,2.4c-0.8,0.3-1.8,0.2-2.7,0.3c0-0.9-0.1-1.7,0-2.6c0.5-2.4,1.4-4.3,4.1-5.2c2-0.7,3.6-2.3,5.4-3.5
				c-1.3-0.5-2.5-0.4-3.5-0.1c-3.1,1-6.2,2.4-9.4,3c-1.2,0.2-2.7-1.2-4.1-1.8c0.8-1.2,1.3-2.8,2.4-3.5c1.7-1,3.7-1.5,5.6-2.2
				c8.8-3.1,17.5-6.2,25.7-9.2c-1.3-1-3.7-2.6-5.4-4.7c-1.2-1.5-2.3-4.5-1.6-5.6c1.5-2.3,3.8-0.4,5.4,0.8c8.9,6.5,17.9,5.7,27,0.6
				c0.8-0.5,1.5-1.7,1.7-2.7c0.8-4.2,0.9-8.5,2.1-12.5c2.2-7.2,3.2-14.1,0-21.3c-1.9-4.1-0.1-8.1,1.2-12.1c1.1-3.5,0.3-5.2-2.4-5.5
				c-12.2-1.3-24.7-0.8-36.2-6.3c-2.3-1.1-3.5,0.3-3.2,2.5c0.3,2.5,0.9,4.9,1.6,7.3c2.9,9.9,4,20,2.8,30.2c-0.7,5.8-4.3,8.8-9.8,7.3
				c-4.2-1.1-8.2-3.3-11.9-5.7c-14-9.3-28.8-9.8-44.3-5.2c-2.8,0.8-5.5,2.2-8.3,2.9c-1.2,0.3-2.7-0.8-4.1-1.3c0.4-1,0.9-2,1.2-3
				c0.1-0.4,0.1-0.8,0.2-1.1c-1.7-0.8-4.5,1.9-4.9-1.8c-0.3-3.1,3.9-10.3,7.1-11.1c10.1-2.7,20-6.8,30.9-4.8c2.9,0.6,5.9,1,9.2,1.6
				c-0.3-1.7-0.2-3.2-0.9-4.1c-1.6-2.1-3.6-3.9-5.4-5.9c-0.6-0.6-1.4-1.7-1.2-2.2c0.4-0.8,1.4-1.7,2.3-1.9c4.5-0.7,7.6,1.2,9.3,5.8
				c0.3,0.8,0.7,1.6,1.3,3c0.3-1.1,0.6-1.5,0.5-1.9c-1.2-6-2.2-12.1-3.6-18.1c-1.4-6.2-3.6-12.3-4.8-18.5
				c-1.3-7.2,1.7-13.9,6.9-15.9c8.5-3.3,17.2-4.7,26.3-1.8c4.7,1.5,9.6,2.5,14.3,3.7c-3.3-4.7-7.1-8.6-9.1-13.2
				c-5.9-13.7-9.2-27.7-0.9-41.8c0.6-1,0.3-2.9-0.3-3.9c-3.6-5.9-5.9-11.8-4.2-19.1c1.9-7.9-0.8-15-5.7-21.5
				c-5.1-6.7-12.1-11-18.8-15.7c-9.5-6.8-16.5-15.6-22-25.7c-2.9-5.3-4.6-11.5-10.1-15.1c-12.5-8.1-21.2-19.7-29.2-32
				c-4.2-6.5-8.4-13.3-16.5-15.7c-5.3-1.6-10.7-2.8-16.1-4.3c-5-1.4-6.5-4-5.6-9.2c0.1-0.6-0.2-1.4-0.1-2c0.1-1.8,0.3-3.6,0.5-5.4
				c0.1-0.7,0.5-1.4,0.3-2c-1-2.5-0.1-4.3,1.7-6c0.4-0.4,0.6-1.4,0.5-2.1c-0.6-3.2,1.1-4.8,3.8-5.2c4.1-0.5,8.2-0.9,12.4-0.8
				c1.3,0,2.7,1.8,4,2.9c0.9,0.8,1.7,1.8,2.8,2.4c2.2,1.1,5.1,1.9,4.4,5.1c-0.8,3.9,1.8,5,4.3,5.9c4.6,1.6,8.1-0.2,10.8-5.4
				c1.9-3.8,4.8-5.6,8.9-5.9c3.6-0.3,5.3,1.8,3.8,5c-0.9,1.9-2.5,3.7-4.3,4.9c-4.9,3.2-5.8,6.5-3.5,12c3.3,7.6,9.3,12.5,15.7,17.3
				c9.6,7.2,19.2,14.4,26.5,24.1c2.3,3.1,3.9,6.8,6.5,9.6c6.6,7.4,15.3,12.8,20.7,21.5c0.5,0.8,2.4,1.2,3.6,1c2.3-0.3,4.5-1.2,7.5-2
				c2-11.6,10.3-19.1,21.2-23.8c7.8-3.3,16.1-5.5,24.6-4.6c6.5,0.7,13.9,3,18.9,7.2c2.1,1.8,6.1,4.1,7.3,6.8c5.1-2.9,9.8-4.6,15-1.1
				c4.8,3.2,8.1,9.5,7,15.3c-2.2,11.7-8.1,20.2-20.6,22.8c-0.9,0.2-2.3,1.3-2.2,1.7c0.5,2,0.9,4.4,2.2,5.8c1.7,1.7,3.6,0.4,5-1.4
				c3.5-4.8,8.4-7.4,14.1-8.5c8.2-1.6,16.5-3.1,24.7-4.7c5-1,9.1-1.6,13.6-4.4c1.8-1.1,3.5-2.2,5.4-3.1c5.6-2.7,11.1-6,17.5-6.7
				c10.9-1.1,19.5-6.5,27.8-13c17.1-13.5,34.5-26.7,51.8-39.9c4-3.1,9.4-6.4,10.3-11.8c0.6-3.3-1-3,1.8-5.3c2.1-1.7,5.5-2.5,8-1.6
				c2.9,1,2.1,2.9,3.7,4.1c4.5,3.3,15-2.5,19.5-3.8c1.3-0.4,3.3-0.3,4.3,0.5c7.3,6.1,13.3,13,10.2,23.6c-0.6,2-1.5,4-2.3,6
				c-1.6-1.2-3.1-2.5-4.7-3.7c0,0-0.2,0.3-0.3,0.6c-1.1,1.6-1.2,5.1-3.9,3.8c-1.4-0.7-1.6-3.9-2.2-6c-0.1-0.5,0.3-1.1,0.3-1.7
				c0.2-2.2-0.8-3.3-3-4c-4.2-1.4-6.6,1-9.1,3.5c-5.3,5.4-11.6,9.4-18.9,11.2c-3.5,0.9-6,2.8-8.5,5.3
				c-10.1,10.2-20.4,20.4-30.6,30.6c-5.5,5.5-11.7,10.5-16.6,16.6c-2.2,2.7-8.3,15.6-13,12.9c-0.9,1.5-1.7,3.1-2.4,4.7
				c-0.9-1.2-1.5-2.2-3-2.3c-2.3-0.1-3.2,2.1-5.6,0.1C4301.2,363.9,4296.4,362.2,4293.1,363.2z"/>
		</g>
	</g>
</g>
</svg>
